<?xml version="1.0" encoding="UTF-8" standalone="no"?>
<svg
   xmlns:dc="http://purl.org/dc/elements/1.1/"
   xmlns:cc="http://creativecommons.org/ns#"
   xmlns:rdf="http://www.w3.org/1999/02/22-rdf-syntax-ns#"
   xmlns:svg="http://www.w3.org/2000/svg"
   xmlns="http://www.w3.org/2000/svg"
   xmlns:sodipodi="http://sodipodi.sourceforge.net/DTD/sodipodi-0.dtd"
   xmlns:inkscape="http://www.inkscape.org/namespaces/inkscape"
   version="1.1"
   id="svg10"
   width="712"
   height="484"
   viewBox="0 0 712 484"
   sodipodi:docname="fcc-logo.svg"
   inkscape:version="1.0.1 (3bc2e813f5, 2020-09-07)">
  <metadata
     id="metadata16">
    <rdf:RDF>
      <cc:Work
         rdf:about="">
        <dc:format>image/svg+xml</dc:format>
        <dc:type
           rdf:resource="http://purl.org/dc/dcmitype/StillImage" />
        <dc:title></dc:title>
      </cc:Work>
    </rdf:RDF>
  </metadata>
  <defs
     id="defs14" />
  <sodipodi:namedview
     pagecolor="#ffffff"
     bordercolor="#666666"
     borderopacity="1"
     objecttolerance="10"
     gridtolerance="10"
     guidetolerance="10"
     inkscape:pageopacity="0"
     inkscape:pageshadow="2"
     inkscape:window-width="1366"
     inkscape:window-height="705"
     id="namedview12"
     showgrid="false"
     showborder="false"
     inkscape:zoom="0.62967567"
     inkscape:cx="255.89524"
     inkscape:cy="258.64438"
     inkscape:window-x="-8"
     inkscape:window-y="-8"
     inkscape:window-maximized="1"
     inkscape:current-layer="g18" />
  <g
     inkscape:groupmode="layer"
     inkscape:label="Image"
     id="g18">
    <path
       style="fill:#000000;fill-opacity:1"
       d="m 286.45813,431.49139 c -6.70898,-7.27838 -10.30731,-15.94134 -12.79081,-30.79377 -3.96033,-23.68449 3.27414,-55.28975 20.56001,-89.82059 7.62446,-15.23089 11.46022,-21.61832 30.02578,-50 16.64406,-25.44424 27.42927,-43.58724 34.62703,-58.25 2.09241,-4.2625 4.35772,-7.75 5.03401,-7.75 3.33234,0 10.15192,20.74329 12.44064,37.84101 1.39313,10.40725 0.62788,35.70666 -1.47183,48.65899 -5.63038,34.7318 0.15994,54.40598 18.67817,63.46415 10.41383,5.0939 21.36006,6.18061 38.82885,3.8548 10.18164,-1.3556 9.67712,-1.63863 14.58304,8.18105 2.48053,4.96502 2.7454,6.52132 2.72314,16 -0.019,8.08008 -0.55466,12.215 -2.32433,17.94134 -3.0727,9.9427 -10.63892,24.79699 -17.48535,34.3279 -3.06952,4.27308 -4.79432,7.34825 -3.8329,6.83371 3.72449,-1.99328 24.4228,-22.6151 31.00825,-30.89365 23.50809,-29.55195 34.29543,-57.31105 34.47293,-88.7093 0.12627,-22.33472 -4.83959,-42.05103 -16.37126,-65 -5.97728,-11.89527 -18.46808,-31.56196 -20.44558,-32.19144 -0.56542,-0.17999 -3.26542,3.81845 -6,8.88541 -10.38453,19.24171 -17.75005,26.19065 -27.76077,26.19065 -8.51795,0 -9.47972,-4.18679 -5.28351,-23.00023 4.83038,-21.65664 5.87118,-31.52672 5.26036,-49.88439 -0.38792,-11.65839 -1.18823,-19.67081 -2.54703,-25.5 C 412.55009,126.83701 400.2151,102.55729 381.5543,79.377032 373.82932,69.78114 352.10443,47.898189 341.71038,39.243226 l -4.96443,-4.133807 -0.0866,12.133807 c -0.16557,23.192329 -6.93594,49.632044 -21.15988,82.633804 -11.68313,27.1067 -24.95996,50.02587 -54.49158,94.06631 -20.43483,30.47443 -28.7048,47.98073 -33.98142,71.93369 -2.92115,13.26043 -2.91089,35.68468 0.0223,48.66385 5.86923,25.97121 20.13495,50.31811 41.85465,71.43216 11.72818,11.40114 20.75434,19.85897 21.21994,19.88384 0.20755,0.0111 -1.44178,-1.95339 -3.66518,-4.36549 z"
       id="path867" />
    <path
       style="fill:#000000;fill-opacity:1"
       d="m 596.94345,472.43759 c 11.57026,-5.387 24.61563,-17.80394 43.66394,-41.56056 37.28499,-46.50099 55.69384,-91.87049 63.29759,-156 1.25777,-10.60797 1.72564,-22.55247 1.74307,-44.5 0.0208,-26.12454 -0.26459,-31.87314 -2.20885,-44.5 C 694.90138,130.42862 673.40604,86.571956 631.21438,38.517679 617.93083,23.388344 608.46985,15.196128 598.53804,10.223396 592.24769,7.0738951 590.66435,6.6784581 586.10007,7.1170281 c -4.41286,0.42402 -5.74758,1.067248 -8.54209,4.1165879 -1.82162,1.987725 -3.31203,4.603578 -3.31203,5.813006 0,4.933074 4.81398,11.501238 20.21973,27.587669 17.81841,18.605696 25.57605,27.893868 35.77471,42.832802 21.45973,31.434077 34.92852,67.321217 40.68731,108.409937 2.12171,15.13827 2.38913,56.53133 0.47486,73.5 -5.05389,44.7992 -19.1981,85.93771 -40.91451,119 -10.8579,16.53068 -21.50427,29.59216 -37.30652,45.7694 -13.36347,13.68061 -18.93558,21.48071 -18.93558,26.50693 0,3.84926 4.49476,10.7256 8.20665,12.555 4.57609,2.25533 8.43184,2.05024 14.49085,-0.77077 z"
       id="path863" />
    <path
       style="fill:#000000;fill-opacity:1"
       d="m 134.21677,473.39212 c 3.54188,-1.83158 6.84221,-6.33023 7.66608,-10.44959 1.24376,-6.21878 -1.91584,-11.18886 -17.39128,-27.35668 -8.00664,-8.36485 -18.09971,-19.63498 -22.42906,-25.04473 -31.154893,-38.92965 -48.519573,-80.5634 -55.957403,-134.16409 -3.16182,-22.78563 -3.14688,-62.3589 0.0315,-83.5 4.13779,-27.52249 10.75854,-49.99875 21.14238,-71.77454 12.72476,-26.684934 26.8846,-46.727655 50.244323,-71.118968 22.93562,-23.948477 27.20425,-30.670101 23.2804,-36.658644 -2.4913,-3.8022139 -7.49929,-6.4398699 -12.23512,-6.4441069 -9.38726,-0.0084 -25.1447,11.3863059 -42.087403,30.4347489 -44.72171,50.279968 -67.69562,98.77455 -74.40661,157.06151 -1.91879,16.6653 -1.63381,59.59051 0.5278,79.5 6.89821,63.53587 25.87001,110.15745 64.49215,158.48393 26.484133,33.13864 45.697033,46.93936 57.122223,41.03116 z"
       id="path859" />
  </g>
</svg>
