<?xml version="1.0" encoding="UTF-8" standalone="no"?>
<svg
   xmlns:dc="http://purl.org/dc/elements/1.1/"
   xmlns:cc="http://creativecommons.org/ns#"
   xmlns:rdf="http://www.w3.org/1999/02/22-rdf-syntax-ns#"
   xmlns:svg="http://www.w3.org/2000/svg"
   xmlns="http://www.w3.org/2000/svg"
   xmlns:sodipodi="http://sodipodi.sourceforge.net/DTD/sodipodi-0.dtd"
   xmlns:inkscape="http://www.inkscape.org/namespaces/inkscape"
   width="544"
   height="480"
   viewBox="0 0 143.93333 127"
   version="1.1"
   id="svg8"
   inkscape:version="1.0.1 (3bc2e813f5, 2020-09-07)"
   sodipodi:docname="github-logo.svg">
  <defs
     id="defs2" />
  <sodipodi:namedview
     id="base"
     pagecolor="#ffffff"
     bordercolor="#666666"
     borderopacity="1.0"
     inkscape:pageopacity="0.0"
     inkscape:pageshadow="2"
     inkscape:zoom="0.7"
     inkscape:cx="572.01149"
     inkscape:cy="218.26408"
     inkscape:document-units="mm"
     inkscape:current-layer="layer1"
     inkscape:document-rotation="0"
     showgrid="false"
     inkscape:window-width="1366"
     inkscape:window-height="705"
     inkscape:window-x="-8"
     inkscape:window-y="-8"
     inkscape:window-maximized="1"
     units="px" />
  <metadata
     id="metadata5">
    <rdf:RDF>
      <cc:Work
         rdf:about="">
        <dc:format>image/svg+xml</dc:format>
        <dc:type
           rdf:resource="http://purl.org/dc/dcmitype/StillImage" />
        <dc:title />
      </cc:Work>
    </rdf:RDF>
  </metadata>
  <g
     inkscape:label="Layer 1"
     inkscape:groupmode="layer"
     id="layer1">
    <path
       style="fill:#c0af9f;stroke-width:1;fill-opacity:1"
       d="m 53.474829,121.17939 c -1.073206,-0.20199 -4.526992,-1.58442 -7.269629,-2.90979 -4.508155,-2.17854 -8.454033,-4.73912 -12.509196,-8.11755 -1.74267,-1.45186 -5.179165,-4.85935 -6.694918,-6.63843 C 14.721086,89.10031 10.074529,70.19786 14.248215,51.63421 15.6994,45.17964 18.60477,38.35695 22.32502,32.66743 34.048313,14.73857 54.285549,4.5489997 75.576677,5.8549097 85.953538,6.4913797 95.745307,9.7393 104.40701,15.41792 c 3.58379,2.34954 6.24073,4.51988 9.41621,7.6917 4.73789,4.73242 8.19629,9.53191 11.20382,15.5484 8.91195,17.82809 8.09924,39.4042 -2.12936,56.53062 -2.6729,4.475434 -5.35141,7.90211 -9.13159,11.68229 -3.94474,3.94475 -7.74797,6.87263 -12.39275,9.54045 -3.731757,2.14339 -9.403039,4.60483 -11.091649,4.81396 -1.417402,0.17554 -2.581336,-0.38442 -3.146561,-1.51378 l -0.310126,-0.61963 -0.02868,-9.8285 c -0.0258,-8.8497 -0.04819,-9.925996 -0.224674,-10.80757 -0.583297,-2.9136 -1.594321,-5.14225 -3.013523,-6.64284 -0.664446,-0.70256 -0.63927,-0.74953 0.46222,-0.86238 1.340713,-0.13736 3.95095,-0.62144 5.796088,-1.07491 4.477502,-1.10042 8.334029,-2.89531 11.205775,-5.21534 1.07852,-0.87132 2.79209,-2.64917 3.58474,-3.71921 3.46725,-4.68066 5.2431,-11.03748 5.2431,-18.76821 0,-3.08714 -0.36681,-5.49728 -1.22983,-8.08056 -0.96521,-2.88919 -2.07081,-4.79493 -4.60757,-7.94217 -0.18623,-0.23102 -0.18083,-0.28287 0.12969,-1.24675 0.99039,-3.0743 1.08452,-7.38878 0.23889,-10.94938 -0.29425,-1.23894 -0.9701,-3.30939 -1.16889,-3.58082 -0.14522,-0.19829 -0.29227,-0.2194 -1.48296,-0.21287 -1.49378,0.008 -2.602916,0.20671 -4.424711,0.792 -2.854689,0.91713 -6.027571,2.50183 -9.263567,4.6267 -0.857182,0.56286 -1.101891,0.67379 -1.377812,0.62461 -0.184534,-0.0329 -1.089791,-0.23679 -2.011685,-0.4531 -4.099433,-0.96188 -8.053559,-1.40401 -12.571289,-1.40565 -4.84519,-0.002 -8.850433,0.49936 -13.946261,1.74491 -0.70969,0.17347 -0.848281,0.17899 -1.061577,0.0423 -5.478529,-3.51097 -9.604836,-5.35187 -13.167692,-5.87461 -1.326767,-0.19466 -2.553626,-0.16918 -2.828258,0.0588 -0.203248,0.16868 -0.866621,2.16379 -1.227602,3.69204 -0.438746,1.85749 -0.563506,3.03555 -0.556204,5.252 0.0074,2.24092 0.176734,3.53181 0.689006,5.25201 0.436575,1.466 0.437052,1.44792 -0.0531,2.01351 -2.89553,3.34118 -4.772926,7.58841 -5.346607,12.09562 -0.235131,1.84735 -0.173316,6.85876 0.111287,9.02204 1.814996,13.79581 9.434915,20.9898 24.547252,23.17515 0.979273,0.14161 1.811494,0.28848 1.849387,0.32636 0.03788,0.0379 -0.181139,0.34246 -0.486729,0.67683 -1.411435,1.54433 -2.422974,3.69797 -2.876857,6.12505 -0.117403,0.62781 -0.244015,0.98775 -0.390285,1.10952 -0.32808,0.273144 -2.830915,1.0709 -4.029494,1.28438 -1.341385,0.23891 -3.662047,0.24401 -4.804407,0.0105 -3.292611,-0.672876 -5.74009,-2.4965 -8.128732,-6.05674 -2.821641,-4.20562 -5.779423,-6.2018 -9.189302,-6.2018 -1.718672,0 -2.684814,0.3922 -2.683864,1.08951 8.45e-4,0.69582 0.758211,1.49724 2.513838,2.66039 1.682329,1.11459 2.476265,1.97723 4.097321,4.45189 0.808144,1.23369 1.260519,2.08955 2.765714,5.23253 0.701021,1.46379 1.63324,2.65321 2.78694,3.55585 3.402188,2.66183 8.423616,3.48057 15.081381,2.45902 0.717847,-0.11015 1.335624,-0.18313 1.372836,-0.16219 0.03721,0.0209 0.10282,2.56642 0.145793,5.65663 0.07019,5.04685 0.05934,5.68109 -0.106515,6.23316 -0.417012,1.38799 -2.024891,2.22177 -3.682771,1.90975 z"
       id="path56" />
  </g>
</svg>
